<svg width="21.000000" height="19.000000" viewBox="0 0 21 19" fill="none" xmlns="http://www.w3.org/2000/svg" xmlns:xlink="http://www.w3.org/1999/xlink">
	<desc>
			Created with Pixso.
	</desc>
	<defs/>
	<path id="Vector" d="M20.34 11.92C19.5 11.5 17.17 10.03 17.15 6.79C17.12 4.14 18.88 2.59 19.63 2.05C19.81 1.92 19.85 1.67 19.71 1.5C19.09 0.71 18.36 0.2 17.66 -0.13C17.66 -0.13 17.66 -0.13 17.66 -0.13C17.57 -0.18 17.42 -0.24 17.29 -0.29C13.77 -1.68 11.56 0.45 10.21 0.45C9.18 0.45 7.6 -0.72 5.91 -0.68C3.7 -0.65 1.67 0.6 0.53 2.58C-1.22 5.61 -0.64 9.76 0.72 13C0.72 13 0.72 13 0.72 13C0.75 13.08 0.81 13.21 0.85 13.31C0.85 13.31 0.85 13.31 0.85 13.31C1.25 14.2 1.7 15.01 2.18 15.7C3.27 17.28 4.57 19.06 6.29 18.99C7.94 18.93 8.56 17.93 10.55 17.93C12.55 17.93 13.11 18.99 14.85 18.96C16.63 18.93 17.75 17.35 18.84 15.76C19.79 14.37 20.32 13 20.53 12.39C20.59 12.21 20.51 12.01 20.34 11.92Z" fill="#D6D6D8" fill-opacity="1.000000" fill-rule="nonzero"/>
</svg>
