<svg width="43.000000" height="43.000000" viewBox="0 0 43 43" fill="none" xmlns="http://www.w3.org/2000/svg" xmlns:xlink="http://www.w3.org/1999/xlink">
	<desc>
			Created with Pixso.
	</desc>
	<defs/>
	<path id="Vector" d="M18.98 0C16.89 0 15.2 1.69 15.2 3.77L15.2 5.12L17.72 6.38L18.98 6.38L20.24 6.38L22.75 5.12L22.75 3.77C22.75 1.69 21.06 0 18.98 0Z" fill="#FF6A4D" fill-opacity="1.000000" fill-rule="nonzero"/>
	<path id="Vector" d="M22.75 5.12L22.75 3.77C22.75 1.69 21.06 0 18.98 0L18.98 6.38L20.24 6.38L22.75 5.12Z" fill="#E64D2E" fill-opacity="1.000000" fill-rule="nonzero"/>
	<path id="Vector" d="M0 37.96C0.58 40.83 3.25 43 6.29 43C9.34 43 12.09 40.83 12.68 37.96L9.94 36.7L1.74 36.7L0 37.96Z" fill="#474F54" fill-opacity="1.000000" fill-rule="nonzero"/>
	<path id="Vector" d="M6.29 40.48C4.21 40.48 2.51 38.78 2.51 36.7C2.51 34.61 4.21 32.92 6.29 32.92C8.38 32.92 10.16 34.61 10.16 36.7C10.16 38.78 8.38 40.48 6.29 40.48Z" fill="#F2F9FF" fill-opacity="1.000000" fill-rule="nonzero"/>
	<path id="Vector" d="M12.68 15.28L5.03 15.28L2.51 17.8L2.51 25.36L5.03 26.62L12.68 26.62L16.46 25.36L16.46 18.56L15.2 17.8L12.68 15.28Z" fill="#DC780B" fill-opacity="1.000000" fill-rule="nonzero"/>
	<path id="Vector" d="M2.51 12.76L2.51 17.8L15.2 17.8L16.46 17.15L15.2 16.54L15.2 12.76L2.51 12.76Z" fill="#FABE2C" fill-opacity="1.000000" fill-rule="nonzero"/>
	<path id="Vector" d="M20.24 37.96L0 37.96L0 36.7C0 31.83 4.03 27.88 8.9 27.88L11 26.62L22.75 26.62L22.75 35.86L20.24 37.96Z" fill="#FF6A4D" fill-opacity="1.000000" fill-rule="nonzero"/>
	<path id="Vector" d="M0 25.36L17.72 25.36L17.72 27.88L0 27.88L0 25.36Z" fill="#32393F" fill-opacity="1.000000" fill-rule="nonzero"/>
	<path id="Vector" d="M26.53 31.73L26.53 36.47L25.27 37.96L20.24 37.96L20.24 27.88L17.72 27.88C16.33 27.88 15.2 26.74 15.2 25.36L15.2 19.06L22.75 19.06L22.75 22.84C24.14 22.84 25.27 23.97 25.27 25.36L25.27 30.4L26.53 31.73Z" fill="#575F64" fill-opacity="1.000000" fill-rule="nonzero"/>
	<path id="Vector" d="M26.53 31.73L26.53 36.47L25.27 37.96L20.24 37.96L20.24 27.88L18.98 27.88L18.98 19.06L22.75 19.06L22.75 22.84C24.14 22.84 25.27 23.97 25.27 25.36L25.27 30.4L26.53 31.73Z" fill="#474F54" fill-opacity="1.000000" fill-rule="nonzero"/>
	<path id="Vector" d="M22.75 17.8L22.75 16.54C22.75 14.46 21.06 12.76 18.98 12.76C16.89 12.76 15.2 14.46 15.2 16.54L15.2 19.06C15.2 21.15 16.89 22.84 18.98 22.84L29.14 22.84C31.22 22.84 32.92 21.15 32.92 19.06L32.92 17.8L22.75 17.8Z" fill="#FF6A4D" fill-opacity="1.000000" fill-rule="nonzero"/>
	<path id="Vector" d="M32.92 19.06L32.92 17.8L22.75 17.8L22.75 16.54C22.75 14.46 21.06 12.76 18.98 12.76L18.98 22.84L29.14 22.84C31.22 22.84 32.92 21.15 32.92 19.06Z" fill="#E64D2E" fill-opacity="1.000000" fill-rule="nonzero"/>
	<path id="Vector" d="M20.24 6.38L18.98 6.38L17.72 6.38L15.2 7.64L15.2 8.9C15.2 10.98 16.89 12.76 18.98 12.76C21.06 12.76 22.75 10.98 22.75 8.9L22.75 7.64L20.24 6.38Z" fill="#FFE1BA" fill-opacity="1.000000" fill-rule="nonzero"/>
	<path id="Vector" d="M22.75 8.9L22.75 7.64L20.24 6.38L18.98 6.38L18.98 12.76C21.06 12.76 22.75 10.98 22.75 8.9Z" fill="#FFBFAB" fill-opacity="1.000000" fill-rule="nonzero"/>
	<path id="Vector" d="M18.98 5.12L15.2 5.12L15.2 7.64L18.98 7.64L25.27 7.64L25.27 5.12L18.98 5.12Z" fill="#474F54" fill-opacity="1.000000" fill-rule="nonzero"/>
	<path id="Vector" d="M18.98 5.12L25.27 5.12L25.27 7.64L18.98 7.64L18.98 5.12Z" fill="#32393F" fill-opacity="1.000000" fill-rule="nonzero"/>
	<path id="Vector" d="M36.39 25.64C36.25 24.66 35.97 22.73 35.42 18.88L30.4 16.54L30.4 26.62C30.4 28.61 28.69 30.4 26.53 30.4L25.27 30.4L25.27 37.96L27.79 37.96L40.48 37.96L43 36.7L43 34.18C43 30.15 40.21 26.63 36.39 25.64Z" fill="#E64D2E" fill-opacity="1.000000" fill-rule="nonzero"/>
	<path id="Vector" d="M37.96 20.32L34.18 20.32C32.09 20.32 30.4 18.62 30.4 16.54C30.4 14.46 32.09 12.76 34.18 12.76L37.96 12.76L37.96 20.32Z" fill="#FF6A4D" fill-opacity="1.000000" fill-rule="nonzero"/>
	<path id="Vector" d="M37.07 30.44L36.71 31.84L34.58 30.79C32.15 31.66 30.4 33.97 30.4 36.7C30.4 40.17 33.22 43 36.7 43C40.17 43 43 40.17 43 36.7C43 33.35 40.37 30.64 37.07 30.44Z" fill="#32393F" fill-opacity="1.000000" fill-rule="nonzero"/>
	<path id="Vector" d="M36.7 32.92C34.61 32.92 32.92 34.61 32.92 36.7C32.92 38.78 34.61 40.48 36.7 40.48C38.78 40.48 40.48 38.78 40.48 36.7C40.48 34.61 38.78 32.92 36.7 32.92Z" fill="#DFE7F4" fill-opacity="1.000000" fill-rule="nonzero"/>
	<path id="Vector" d="M37.94 36.52L37.07 30.44C36.95 30.43 36.83 30.4 36.7 30.4C35.95 30.4 35.24 30.55 34.58 30.79L35.45 36.87L37.94 36.52Z" fill="#C7CFE1" fill-opacity="1.000000" fill-rule="nonzero"/>
</svg>
