<svg width="52.000000" height="52.000000" viewBox="0 0 52 52" fill="none" xmlns="http://www.w3.org/2000/svg" xmlns:xlink="http://www.w3.org/1999/xlink">
	<desc>
			Created with Pixso.
	</desc>
	<defs/>
	<path id="Vector" d="M26.28 0L26.28 51.99C40.51 51.84 52 40.26 52 26C52 11.73 40.51 0.15 26.28 0Z" fill="#FFBB54" fill-opacity="1.000000" fill-rule="nonzero"/>
	<path id="Vector" d="M26.28 0C26.18 0 26.09 0 26 0C11.64 0 0 11.64 0 26C0 40.35 11.64 52 26 52C26.09 52 26.18 51.99 26.28 51.99C38.19 51.81 47.81 40.24 47.81 26C47.81 11.75 38.19 0.18 26.28 0Z" fill="#FFD45A" fill-opacity="1.000000" fill-rule="nonzero"/>
	<path id="Vector" d="M36.3 22.88L26.13 35.88L36.58 35.88C38.37 33.59 39.44 30.71 39.44 27.59L39.44 26.02C39.44 24.29 38.03 22.88 36.3 22.88Z" fill="#B74147" fill-opacity="1.000000" fill-rule="nonzero"/>
	<path id="Vector" d="M15.69 22.88C13.96 22.88 12.55 24.29 12.55 26.02L12.55 27.59C12.55 30.71 13.62 33.59 15.41 35.88L34.98 34.17C35.82 32.22 36.3 29.98 36.3 27.59L36.3 26.02L15.69 22.88Z" fill="#FF3C1F" fill-opacity="1.000000" fill-rule="nonzero"/>
	<path id="Vector" d="M34.98 34.17L26.13 41.03C30.37 40.99 34.14 38.98 36.58 35.88C36.1 35.26 35.56 34.69 34.98 34.17Z" fill="#FA4087" fill-opacity="1.000000" fill-rule="nonzero"/>
	<path id="Vector" d="M34.98 34.17C33.24 38.22 29.93 40.97 26.13 41.03C26.08 41.03 26.04 41.03 26 41.03C21.7 41.03 17.87 39.01 15.41 35.88C17.87 32.74 21.7 30.72 26 30.72C29.45 30.72 32.6 32.03 34.98 34.17Z" fill="#FA71A3" fill-opacity="1.000000" fill-rule="nonzero"/>
	<path id="Vector" d="M33.16 22.88L31.59 27.59L34.73 27.59C35.59 27.59 36.3 26.88 36.3 26.02L36.3 22.88L33.16 22.88Z" fill="#FFF7DF" fill-opacity="1.000000" fill-rule="nonzero"/>
	<path id="Vector" d="M33.16 22.88L33.16 26.02C33.16 26.88 32.46 27.59 31.59 27.59L17.26 27.59C16.4 27.59 15.69 26.88 15.69 26.02L15.69 22.88L33.16 22.88Z" fill="#FFFFFF" fill-opacity="1.000000" fill-rule="nonzero"/>
	<path id="Vector" d="M26.78 44.95L25.21 44.95C24.78 44.95 24.43 44.6 24.43 44.17C24.43 43.74 24.78 43.38 25.21 43.38L26.78 43.38C27.21 43.38 27.56 43.74 27.56 44.17C27.56 44.6 27.21 44.95 26.78 44.95Z" fill="#FFBB54" fill-opacity="1.000000" fill-rule="nonzero"/>
	<path id="Vector" d="M34.73 11.89C33.87 11.89 33.16 12.6 33.16 13.46L33.16 18.17C33.16 19.03 33.87 19.74 34.73 19.74C35.59 19.74 36.3 19.03 36.3 18.17L36.3 13.46C36.3 12.6 35.59 11.89 34.73 11.89Z" fill="#474867" fill-opacity="1.000000" fill-rule="nonzero"/>
	<path id="Vector" d="M17.26 11.89C16.4 11.89 15.69 12.6 15.69 13.46L15.69 18.17C15.69 19.03 16.4 19.74 17.26 19.74C18.12 19.74 18.83 19.03 18.83 18.17L18.83 13.46C18.83 12.6 18.12 11.89 17.26 11.89Z" fill="#474867" fill-opacity="1.000000" fill-rule="nonzero"/>
</svg>
