<svg width="21.000000" height="21.000000" viewBox="0 0 21 21" fill="none" xmlns="http://www.w3.org/2000/svg" xmlns:xlink="http://www.w3.org/1999/xlink">
	<desc>
			Created with Pixso.
	</desc>
	<defs/>
	<path id="Vector" d="M21 10.5C21 16.29 16.29 21 10.5 21C4.7 21 0 16.29 0 10.5C0 4.7 4.7 0 10.5 0C16.29 0 21 4.7 21 10.5Z" fill="#4A7AFF" fill-opacity="1.000000" fill-rule="nonzero"/>
	<path id="Vector" d="M10.96 20.98C16.54 20.74 21 16.14 21 10.49C21 10.45 20.99 10.41 20.99 10.37L13.71 3.08L5.91 11.23L10.24 15.56L8.25 18.27L10.96 20.98Z" fill="#0053BF" fill-opacity="1.000000" fill-rule="nonzero"/>
	<path id="Vector" d="M13.7 3.08L13.7 5.46C13.7 5.46 10.98 5.07 10.98 6.83L10.98 8.59L13.44 8.59L13.13 11.27L10.98 11.27L10.98 18.27L8.25 18.27L8.25 11.27L5.91 11.23L5.91 8.59L8.2 8.59L8.2 6.56C8.2 6.56 8.05 3.55 11.02 3C12.25 2.77 13.7 3.08 13.7 3.08Z" fill="#FFFFFF" fill-opacity="1.000000" fill-rule="nonzero"/>
	<path id="Vector" d="M13.7 5.46L13.7 3.08C13.7 3.08 12.25 2.77 11.02 3C10.83 3.03 10.65 3.08 10.48 3.13L10.48 18.27L10.98 18.27L10.98 11.27L13.13 11.27L13.44 8.59L10.98 8.59C10.98 8.59 10.98 8.59 10.98 6.83C10.98 5.07 13.7 5.46 13.7 5.46Z" fill="#DCE1EB" fill-opacity="1.000000" fill-rule="nonzero"/>
</svg>
