<svg width="21.000000" height="21.000000" viewBox="0 0 21 21" fill="none" xmlns="http://www.w3.org/2000/svg" xmlns:xlink="http://www.w3.org/1999/xlink">
	<desc>
			Created with Pixso.
	</desc>
	<defs/>
	<path id="Vector" d="M21 10.5C21 16.29 16.29 21 10.5 21C4.7 21 0 16.29 0 10.5C0 4.7 4.7 0 10.5 0C16.29 0 21 4.7 21 10.5Z" fill="#6C27B3" fill-opacity="1.000000" fill-rule="evenodd"/>
	<path id="Vector" d="M15.36 5.45C14.11 5.61 12.8 5.6 11.48 5.47C9.65 5.33 6.96 4.48 5.97 6.18C4.38 8.9 5.16 12.38 5.53 15.45L11.06 20.98C16.41 20.7 20.69 16.41 20.98 11.06L15.36 5.45Z" fill="#501A96" fill-opacity="1.000000" fill-rule="nonzero"/>
	<path id="Vector" d="M12.92 4.48L8.07 4.48C6.09 4.48 4.48 6.09 4.48 8.07L4.48 12.92C4.48 14.9 6.09 16.51 8.07 16.51L12.92 16.51C14.9 16.51 16.51 14.9 16.51 12.92L16.51 8.07C16.51 6.09 14.9 4.48 12.92 4.48ZM15.3 12.92C15.3 14.23 14.23 15.3 12.92 15.3L8.07 15.3C6.76 15.3 5.69 14.23 5.69 12.92L5.69 8.07C5.69 6.76 6.76 5.69 8.07 5.69L12.92 5.69C14.23 5.69 15.3 6.76 15.3 8.07L15.3 12.92Z" fill="#FFFFFF" fill-opacity="1.000000" fill-rule="nonzero"/>
	<path id="Vector" d="M10.5 7.39C8.78 7.39 7.39 8.78 7.39 10.5C7.39 12.21 8.78 13.6 10.5 13.6C12.21 13.6 13.6 12.21 13.6 10.5C13.6 8.78 12.21 7.39 10.5 7.39ZM10.5 12.39C9.45 12.39 8.6 11.54 8.6 10.5C8.6 9.45 9.45 8.6 10.5 8.6C11.54 8.6 12.39 9.45 12.39 10.5C12.39 11.54 11.54 12.39 10.5 12.39Z" fill="#FFFFFF" fill-opacity="1.000000" fill-rule="nonzero"/>
	<path id="Vector" d="M14.35 7.41C14.35 7.82 14.02 8.15 13.61 8.15C13.2 8.15 12.86 7.82 12.86 7.41C12.86 7 13.2 6.66 13.61 6.66C14.02 6.66 14.35 7 14.35 7.41Z" fill="#D1D1D1" fill-opacity="1.000000" fill-rule="nonzero"/>
	<path id="Vector" d="M12.92 4.48L10.47 4.48L10.47 5.69L12.92 5.69C14.23 5.69 15.3 6.76 15.3 8.07L15.3 12.92C15.3 14.23 14.23 15.3 12.92 15.3L10.47 15.3L10.47 16.51L12.92 16.51C14.9 16.51 16.51 14.9 16.51 12.92L16.51 8.07C16.51 6.09 14.9 4.48 12.92 4.48Z" fill="#D1D1D1" fill-opacity="1.000000" fill-rule="nonzero"/>
	<path id="Vector" d="M10.5 7.39C10.49 7.39 10.48 7.39 10.47 7.39L10.47 8.6C10.48 8.6 10.49 8.6 10.5 8.6C11.54 8.6 12.39 9.45 12.39 10.5C12.39 11.54 11.54 12.39 10.5 12.39C10.49 12.39 10.48 12.39 10.47 12.39L10.47 13.6C10.48 13.6 10.49 13.6 10.5 13.6C12.21 13.6 13.6 12.21 13.6 10.5C13.6 8.78 12.21 7.39 10.5 7.39Z" fill="#D1D1D1" fill-opacity="1.000000" fill-rule="nonzero"/>
</svg>
