<svg width="23.000000" height="25.000000" viewBox="0 0 23 25" fill="none" xmlns="http://www.w3.org/2000/svg" xmlns:xlink="http://www.w3.org/1999/xlink">
	<desc>
			Created with Pixso.
	</desc>
	<defs/>
	<path id="Vector" d="M16.42 12L0.41 -0.43C-0.21 0.05 -0.62 0.8 -0.62 1.69L-0.62 22.31C-0.62 23.19 -0.21 23.94 0.41 24.42L16.42 12Z" fill="#9DC6FB" fill-opacity="1.000000" fill-rule="nonzero"/>
	<path id="Vector" d="M21.27 9.67L17.39 7.43L14 7.86L12.83 12L13.42 15.96L17.39 16.56L21.27 14.32C23.06 13.29 23.06 10.7 21.27 9.67Z" fill="#FFE07D" fill-opacity="1.000000" fill-rule="nonzero"/>
	<path id="Vector" d="M17.39 7.43L3.41 -0.64C2.39 -1.23 1.22 -1.06 0.41 -0.43L12.83 12L17.39 7.43Z" fill="#DD5790" fill-opacity="1.000000" fill-rule="nonzero"/>
	<path id="Vector" d="M17.39 16.56L12.83 12L0.41 24.42C1.22 25.05 2.39 25.22 3.41 24.63L17.39 16.56Z" fill="#95D6A4" fill-opacity="1.000000" fill-rule="nonzero"/>
	<path id="Vector" d="M2.41 1.69C2.41 1.5 2.42 1.33 2.46 1.16L0.41 -0.43C-0.21 0.05 -0.62 0.8 -0.62 1.69L-0.62 22.31C-0.62 23.19 -0.21 23.94 0.41 24.42L2.46 22.83C2.42 22.66 2.41 22.49 2.41 22.31L2.41 1.69Z" fill="#80B4FB" fill-opacity="1.000000" fill-rule="nonzero"/>
	<path id="Vector" d="M3.59 -0.54L3.41 -0.64C2.39 -1.23 1.22 -1.06 0.41 -0.43L2.41 1.58C2.44 0.74 2.85 0.03 3.43 -0.43L3.43 -0.43C3.48 -0.47 3.53 -0.5 3.59 -0.54Z" fill="#DA387D" fill-opacity="1.000000" fill-rule="nonzero"/>
	<path id="Vector" d="M3.43 24.42L3.43 24.42L3.43 24.42C2.85 23.96 2.44 23.25 2.41 22.41L0.41 24.42C1.22 25.05 2.39 25.22 3.41 24.63L3.59 24.53C3.53 24.49 3.48 24.46 3.43 24.42Z" fill="#78C2A4" fill-opacity="1.000000" fill-rule="nonzero"/>
</svg>
