<svg width="21.000000" height="21.000000" viewBox="0 0 21 21" fill="none" xmlns="http://www.w3.org/2000/svg" xmlns:xlink="http://www.w3.org/1999/xlink">
	<desc>
			Created with Pixso.
	</desc>
	<defs>
		<clipPath id="clip2_63">
			<rect id="twitter 1" width="21.000000" height="21.000000" fill="white" fill-opacity="0"/>
		</clipPath>
	</defs>
	<rect id="twitter 1" width="21.000000" height="21.000000" fill="#FFFFFF" fill-opacity="0"/>
	<g clip-path="url(#clip2_63)">
		<path id="Vector" d="M21 10.5C21 16.29 16.29 20.99 10.5 20.99C4.7 20.99 0 16.29 0 10.5C0 4.7 4.7 0 10.5 0C16.29 0 21 4.7 21 10.5Z" fill="#55ACEE" fill-opacity="1.000000" fill-rule="evenodd"/>
		<path id="Vector" d="M16.93 7.54C16.48 7.74 15.99 7.88 15.49 7.94C16 7.63 16.4 7.13 16.59 6.55C16.1 6.84 15.57 7.04 15 7.16C14.54 6.67 13.89 6.36 13.16 6.36C11.78 6.36 10.65 7.49 10.65 8.87C10.65 9.07 10.68 9.26 10.72 9.45C8.63 9.34 6.78 8.34 5.55 6.82C5.33 7.19 5.21 7.63 5.21 8.09C5.21 8.96 5.65 9.72 6.32 10.17C5.91 10.16 5.52 10.05 5.18 9.86C5.18 9.87 5.18 9.88 5.18 9.89C5.18 11.11 6.05 12.12 7.2 12.35C6.99 12.41 6.77 12.44 6.54 12.44C6.37 12.44 6.22 12.43 6.06 12.4C6.38 13.39 7.31 14.12 8.41 14.14C7.55 14.81 6.47 15.21 5.29 15.21C5.09 15.21 4.89 15.2 4.69 15.18C5.8 15.89 7.12 16.31 8.54 16.31C13.16 16.31 15.68 12.48 15.68 9.16C15.68 9.06 15.68 8.95 15.67 8.84C16.16 8.49 16.59 8.04 16.93 7.54Z" fill="#F1F2F2" fill-opacity="1.000000" fill-rule="nonzero"/>
	</g>
</svg>
