<svg width="21.000000" height="21.000000" viewBox="0 0 21 21" fill="none" xmlns="http://www.w3.org/2000/svg" xmlns:xlink="http://www.w3.org/1999/xlink">
	<desc>
			Created with Pixso.
	</desc>
	<defs/>
	<path id="Vector" d="M21 10.5C21 16.29 16.29 21 10.5 21C4.7 21 0 16.29 0 10.5C0 4.7 4.7 0 10.5 0C16.29 0 21 4.7 21 10.5Z" fill="#D22215" fill-opacity="1.000000" fill-rule="evenodd"/>
	<path id="Vector" d="M15.78 6.98C15.47 7.08 15.14 7.16 14.81 7.24C12.47 7.74 9.36 6.39 8.02 8.59C6.9 10.33 6.55 12.51 5.27 14.07L12.08 20.88C16.61 20.19 20.19 16.61 20.88 12.08L15.78 6.98Z" fill="#A81411" fill-opacity="1.000000" fill-rule="nonzero"/>
	<path id="Vector" d="M14.01 6.24L6.98 6.24C5.6 6.24 4.49 7.36 4.49 8.74L4.49 12.25C4.49 13.63 5.6 14.75 6.98 14.75L14.01 14.75C15.39 14.75 16.5 13.63 16.5 12.25L16.5 8.74C16.5 7.36 15.39 6.24 14.01 6.24ZM12.32 10.67L9.03 12.23C8.95 12.28 8.85 12.21 8.85 12.11L8.85 8.88C8.85 8.78 8.95 8.72 9.04 8.76L12.32 10.43C12.42 10.48 12.42 10.62 12.32 10.67Z" fill="#FFFFFF" fill-opacity="1.000000" fill-rule="nonzero"/>
	<path id="Vector" d="M14.01 6.24L10.42 6.24L10.42 9.47L12.32 10.43C12.42 10.48 12.42 10.62 12.32 10.67L10.42 11.57L10.42 14.75L14.01 14.75C15.39 14.75 16.5 13.63 16.5 12.25L16.5 8.74C16.5 7.36 15.39 6.24 14.01 6.24Z" fill="#D1D1D1" fill-opacity="1.000000" fill-rule="nonzero"/>
</svg>
